{
	"asset":{
		"generator":"Khronos glTF Blender I/O v4.1.62",
		"version":"2.0"
	},
	"extensionsUsed":[
		"KHR_materials_transmission",
		"KHR_materials_specular",
		"KHR_materials_emissive_strength"
	],
	"scene":0,
	"scenes":[
		{
			"name":"Scene",
			"nodes":[
				0,
				1,
				2,
				3,
				4
			]
		}
	],
	"nodes":[
		{
			"mesh":0,
			"name":"Plane"
		},
		{
			"mesh":1,
			"name":"Cone"
		},
		{
			"mesh":2,
			"name":"Sphere"
		},
		{
			"mesh":3,
			"name":"Circle"
		},
		{
			"mesh":4,
			"name":"Cube"
		}
	],
	"materials":[
		{
			"doubleSided":true,
			"extensions":{
				"KHR_materials_transmission":{
					"transmissionFactor":1
				},
				"KHR_materials_specular":{
					"specularFactor":0
				}
			},
			"name":"None.002",
			"pbrMetallicRoughness":{
				"baseColorFactor":[
					0,
					0,
					0.800000011920929,
					1
				],
				"metallicFactor":0,
				"roughnessFactor":0
			}
		},
		{
			"doubleSided":true,
			"extensions":{
				"KHR_materials_transmission":{
					"transmissionFactor":1
				},
				"KHR_materials_specular":{
					"specularFactor":0
				}
			},
			"name":"None.001",
			"pbrMetallicRoughness":{
				"baseColorFactor":[
					0,
					0.8001892566680908,
					0,
					1
				],
				"metallicFactor":0,
				"roughnessFactor":0
			}
		},
		{
			"doubleSided":true,
			"emissiveFactor":[
				1,
				0.6932815909385681,
				0.2317374348640442
			],
			"extensions":{
				"KHR_materials_emissive_strength":{
					"emissiveStrength":50
				},
				"KHR_materials_specular":{
					"specularFactor":0
				}
			},
			"name":"None",
			"pbrMetallicRoughness":{
				"baseColorFactor":[
					0.800000011920929,
					0.800000011920929,
					0.800000011920929,
					1
				],
				"metallicFactor":0
			}
		},
		{
			"doubleSided":true,
			"extensions":{
				"KHR_materials_transmission":{
					"transmissionFactor":1
				}
			},
			"name":"Material.001",
			"pbrMetallicRoughness":{
				"baseColorFactor":[
					0.800000011920929,
					0,
					0,
					1
				],
				"metallicFactor":0,
				"roughnessFactor":0
			}
		}
	],
	"meshes":[
		{
			"name":"Plane",
			"primitives":[
				{
					"attributes":{
						"POSITION":0,
						"NORMAL":1,
						"TEXCOORD_0":2
					},
					"indices":3
				}
			]
		},
		{
			"name":"Cone.001",
			"primitives":[
				{
					"attributes":{
						"POSITION":4,
						"NORMAL":5,
						"TEXCOORD_0":6
					},
					"indices":7,
					"material":0
				}
			]
		},
		{
			"name":"Sphere.001",
			"primitives":[
				{
					"attributes":{
						"POSITION":8,
						"NORMAL":9,
						"TEXCOORD_0":10
					},
					"indices":11,
					"material":1
				}
			]
		},
		{
			"name":"Circle",
			"primitives":[
				{
					"attributes":{
						"POSITION":12,
						"NORMAL":13,
						"TEXCOORD_0":14
					},
					"indices":15,
					"material":2
				}
			]
		},
		{
			"name":"Cube.001",
			"primitives":[
				{
					"attributes":{
						"POSITION":16,
						"NORMAL":17,
						"TEXCOORD_0":18
					},
					"indices":19,
					"material":3
				}
			]
		}
	],
	"accessors":[
		{
			"bufferView":0,
			"componentType":5126,
			"count":4,
			"max":[
				10,
				0,
				5.769179344177246
			],
			"min":[
				-10,
				0,
				-14.230820655822754
			],
			"type":"VEC3"
		},
		{
			"bufferView":1,
			"componentType":5126,
			"count":4,
			"type":"VEC3"
		},
		{
			"bufferView":2,
			"componentType":5126,
			"count":4,
			"type":"VEC2"
		},
		{
			"bufferView":3,
			"componentType":5123,
			"count":6,
			"type":"SCALAR"
		},
		{
			"bufferView":4,
			"componentType":5126,
			"count":128,
			"max":[
				1,
				2.025330066680908,
				1
			],
			"min":[
				-1,
				0.0253299567848444,
				-1
			],
			"type":"VEC3"
		},
		{
			"bufferView":5,
			"componentType":5126,
			"count":128,
			"type":"VEC3"
		},
		{
			"bufferView":6,
			"componentType":5126,
			"count":128,
			"type":"VEC2"
		},
		{
			"bufferView":7,
			"componentType":5123,
			"count":186,
			"type":"SCALAR"
		},
		{
			"bufferView":8,
			"componentType":5126,
			"count":4223,
			"max":[
				-2.390554428100586,
				2.0115718841552734,
				1.9527251720428467
			],
			"min":[
				-4.39055061340332,
				0.011575497686862946,
				-0.04727506637573242
			],
			"type":"VEC3"
		},
		{
			"bufferView":9,
			"componentType":5126,
			"count":4223,
			"type":"VEC3"
		},
		{
			"bufferView":10,
			"componentType":5126,
			"count":4223,
			"type":"VEC2"
		},
		{
			"bufferView":11,
			"componentType":5123,
			"count":24192,
			"type":"SCALAR"
		},
		{
			"bufferView":12,
			"componentType":5126,
			"count":33,
			"max":[
				2,
				3.933817148208618,
				7.374053478240967
			],
			"min":[
				-2,
				0.027251243591308594,
				6.514551639556885
			],
			"type":"VEC3"
		},
		{
			"bufferView":13,
			"componentType":5126,
			"count":33,
			"type":"VEC3"
		},
		{
			"bufferView":14,
			"componentType":5126,
			"count":33,
			"type":"VEC2"
		},
		{
			"bufferView":15,
			"componentType":5123,
			"count":96,
			"type":"SCALAR"
		},
		{
			"bufferView":16,
			"componentType":5126,
			"count":24,
			"max":[
				4.693822383880615,
				2.0119409561157227,
				2.33967661857605
			],
			"min":[
				2.3082900047302246,
				0.011940977536141872,
				-0.04585576057434082
			],
			"type":"VEC3"
		},
		{
			"bufferView":17,
			"componentType":5126,
			"count":24,
			"type":"VEC3"
		},
		{
			"bufferView":18,
			"componentType":5126,
			"count":24,
			"type":"VEC2"
		},
		{
			"bufferView":19,
			"componentType":5123,
			"count":36,
			"type":"SCALAR"
		}
	],
	"bufferViews":[
		{
			"buffer":0,
			"byteLength":48,
			"byteOffset":0,
			"target":34962
		},
		{
			"buffer":0,
			"byteLength":48,
			"byteOffset":48,
			"target":34962
		},
		{
			"buffer":0,
			"byteLength":32,
			"byteOffset":96,
			"target":34962
		},
		{
			"buffer":0,
			"byteLength":12,
			"byteOffset":128,
			"target":34963
		},
		{
			"buffer":0,
			"byteLength":1536,
			"byteOffset":140,
			"target":34962
		},
		{
			"buffer":0,
			"byteLength":1536,
			"byteOffset":1676,
			"target":34962
		},
		{
			"buffer":0,
			"byteLength":1024,
			"byteOffset":3212,
			"target":34962
		},
		{
			"buffer":0,
			"byteLength":372,
			"byteOffset":4236,
			"target":34963
		},
		{
			"buffer":0,
			"byteLength":50676,
			"byteOffset":4608,
			"target":34962
		},
		{
			"buffer":0,
			"byteLength":50676,
			"byteOffset":55284,
			"target":34962
		},
		{
			"buffer":0,
			"byteLength":33784,
			"byteOffset":105960,
			"target":34962
		},
		{
			"buffer":0,
			"byteLength":48384,
			"byteOffset":139744,
			"target":34963
		},
		{
			"buffer":0,
			"byteLength":396,
			"byteOffset":188128,
			"target":34962
		},
		{
			"buffer":0,
			"byteLength":396,
			"byteOffset":188524,
			"target":34962
		},
		{
			"buffer":0,
			"byteLength":264,
			"byteOffset":188920,
			"target":34962
		},
		{
			"buffer":0,
			"byteLength":192,
			"byteOffset":189184,
			"target":34963
		},
		{
			"buffer":0,
			"byteLength":288,
			"byteOffset":189376,
			"target":34962
		},
		{
			"buffer":0,
			"byteLength":288,
			"byteOffset":189664,
			"target":34962
		},
		{
			"buffer":0,
			"byteLength":192,
			"byteOffset":189952,
			"target":34962
		},
		{
			"buffer":0,
			"byteLength":72,
			"byteOffset":190144,
			"target":34963
		}
	],
	"buffers":[
		{
			"byteLength":190216,
			"uri":"AreaLight.bin"
		}
	]
}
