{
	"asset":{
		"generator":"Khronos glTF Blender I/O v4.1.62",
		"version":"2.0"
	},
	"scene":0,
	"scenes":[
		{
			"name":"Scene",
			"nodes":[
				0
			]
		}
	],
	"nodes":[
		{
			"mesh":0,
			"name":"Sponza"
		}
	],
	"materials":[
		{
			"name":"Material_4.002",
			"normalTexture":{
				"index":0
			},
			"pbrMetallicRoughness":{
				"baseColorFactor":[
					0.5879999995231628,
					0.5879999995231628,
					0.5879999995231628,
					1
				],
				"baseColorTexture":{
					"index":1
				},
				"metallicRoughnessTexture":{
					"index":2
				}
			}
		},
		{
			"name":"Material_5.002",
			"normalTexture":{
				"index":3
			},
			"pbrMetallicRoughness":{
				"baseColorFactor":[
					0.5879999995231628,
					0.5879999995231628,
					0.5879999995231628,
					1
				],
				"baseColorTexture":{
					"index":4
				},
				"metallicRoughnessTexture":{
					"index":5
				}
			}
		},
		{
			"name":"Material_6.002",
			"normalTexture":{
				"index":6
			},
			"pbrMetallicRoughness":{
				"baseColorFactor":[
					0.5879999995231628,
					0.5879999995231628,
					0.5879999995231628,
					1
				],
				"baseColorTexture":{
					"index":7
				},
				"metallicRoughnessTexture":{
					"index":8
				}
			}
		},
		{
			"name":"Material_7.002",
			"normalTexture":{
				"index":9
			},
			"pbrMetallicRoughness":{
				"baseColorFactor":[
					0.5879999995231628,
					0.5879999995231628,
					0.5879999995231628,
					1
				],
				"baseColorTexture":{
					"index":10
				},
				"metallicRoughnessTexture":{
					"index":11
				}
			}
		},
		{
			"name":"Material_8.002",
			"normalTexture":{
				"index":12
			},
			"pbrMetallicRoughness":{
				"baseColorFactor":[
					0.5879999995231628,
					0.5879999995231628,
					0.5879999995231628,
					1
				],
				"baseColorTexture":{
					"index":13
				},
				"metallicRoughnessTexture":{
					"index":14
				}
			}
		},
		{
			"name":"Material_9.002",
			"normalTexture":{
				"index":15
			},
			"pbrMetallicRoughness":{
				"baseColorFactor":[
					0.5879999995231628,
					0.5879999995231628,
					0.5879999995231628,
					1
				],
				"baseColorTexture":{
					"index":16
				},
				"metallicRoughnessTexture":{
					"index":17
				}
			}
		},
		{
			"name":"Material_10.002",
			"normalTexture":{
				"index":18
			},
			"pbrMetallicRoughness":{
				"baseColorFactor":[
					0.5879999995231628,
					0.5879999995231628,
					0.5879999995231628,
					1
				],
				"baseColorTexture":{
					"index":19
				},
				"metallicRoughnessTexture":{
					"index":20
				}
			}
		},
		{
			"name":"Material_11.002",
			"normalTexture":{
				"index":21
			},
			"pbrMetallicRoughness":{
				"baseColorFactor":[
					0.5879999995231628,
					0.5879999995231628,
					0.5879999995231628,
					1
				],
				"baseColorTexture":{
					"index":22
				},
				"metallicRoughnessTexture":{
					"index":23
				}
			}
		},
		{
			"name":"Material_12.002",
			"normalTexture":{
				"index":24
			},
			"pbrMetallicRoughness":{
				"baseColorFactor":[
					0.5879999995231628,
					0.5879999995231628,
					0.5879999995231628,
					1
				],
				"baseColorTexture":{
					"index":25
				},
				"metallicRoughnessTexture":{
					"index":26
				}
			}
		},
		{
			"name":"Material_2.002",
			"pbrMetallicRoughness":{
				"baseColorFactor":[
					0.5879999995231628,
					0.5879999995231628,
					0.5879999995231628,
					1
				],
				"baseColorTexture":{
					"index":27
				},
				"metallicFactor":0
			}
		},
		{
			"name":"Material_22.002",
			"normalTexture":{
				"index":28
			},
			"pbrMetallicRoughness":{
				"baseColorFactor":[
					0.5879999995231628,
					0.5879999995231628,
					0.5879999995231628,
					1
				],
				"baseColorTexture":{
					"index":29
				},
				"metallicRoughnessTexture":{
					"index":30
				}
			}
		},
		{
			"name":"Material_23.002",
			"normalTexture":{
				"index":31
			},
			"pbrMetallicRoughness":{
				"baseColorFactor":[
					0.5879999995231628,
					0.5879999995231628,
					0.5879999995231628,
					1
				],
				"baseColorTexture":{
					"index":32
				},
				"metallicRoughnessTexture":{
					"index":33
				}
			}
		},
		{
			"name":"Material_24.002",
			"normalTexture":{
				"index":34
			},
			"pbrMetallicRoughness":{
				"baseColorFactor":[
					0.5879999995231628,
					0.5879999995231628,
					0.5879999995231628,
					1
				],
				"baseColorTexture":{
					"index":35
				},
				"metallicRoughnessTexture":{
					"index":36
				}
			}
		}
	],
	"meshes":[
		{
			"name":"Sponza.003",
			"primitives":[
				{
					"attributes":{
						"POSITION":0,
						"NORMAL":1,
						"TEXCOORD_0":2
					},
					"indices":3,
					"material":0
				},
				{
					"attributes":{
						"POSITION":4,
						"NORMAL":5,
						"TEXCOORD_0":6
					},
					"indices":7,
					"material":1
				},
				{
					"attributes":{
						"POSITION":8,
						"NORMAL":9,
						"TEXCOORD_0":10
					},
					"indices":11,
					"material":2
				},
				{
					"attributes":{
						"POSITION":12,
						"NORMAL":13,
						"TEXCOORD_0":14
					},
					"indices":15,
					"material":3
				},
				{
					"attributes":{
						"POSITION":16,
						"NORMAL":17,
						"TEXCOORD_0":18
					},
					"indices":19,
					"material":4
				},
				{
					"attributes":{
						"POSITION":20,
						"NORMAL":21,
						"TEXCOORD_0":22
					},
					"indices":23,
					"material":5
				},
				{
					"attributes":{
						"POSITION":24,
						"NORMAL":25,
						"TEXCOORD_0":26
					},
					"indices":27,
					"material":6
				},
				{
					"attributes":{
						"POSITION":28,
						"NORMAL":29,
						"TEXCOORD_0":30
					},
					"indices":31,
					"material":7
				},
				{
					"attributes":{
						"POSITION":32,
						"NORMAL":33,
						"TEXCOORD_0":34
					},
					"indices":35,
					"material":8
				},
				{
					"attributes":{
						"POSITION":36,
						"NORMAL":37,
						"TEXCOORD_0":38
					},
					"indices":39,
					"material":9
				},
				{
					"attributes":{
						"POSITION":40,
						"NORMAL":41,
						"TEXCOORD_0":42
					},
					"indices":43,
					"material":10
				},
				{
					"attributes":{
						"POSITION":44,
						"NORMAL":45,
						"TEXCOORD_0":46
					},
					"indices":47,
					"material":11
				},
				{
					"attributes":{
						"POSITION":48,
						"NORMAL":49,
						"TEXCOORD_0":50
					},
					"indices":51,
					"material":12
				}
			]
		}
	],
	"textures":[
		{
			"sampler":0,
			"source":0
		},
		{
			"sampler":0,
			"source":1
		},
		{
			"sampler":0,
			"source":2
		},
		{
			"sampler":0,
			"source":3
		},
		{
			"sampler":0,
			"source":4
		},
		{
			"sampler":0,
			"source":5
		},
		{
			"sampler":0,
			"source":6
		},
		{
			"sampler":0,
			"source":7
		},
		{
			"sampler":0,
			"source":8
		},
		{
			"sampler":0,
			"source":9
		},
		{
			"sampler":0,
			"source":10
		},
		{
			"sampler":0,
			"source":11
		},
		{
			"sampler":0,
			"source":12
		},
		{
			"sampler":0,
			"source":13
		},
		{
			"sampler":0,
			"source":14
		},
		{
			"sampler":0,
			"source":15
		},
		{
			"sampler":0,
			"source":16
		},
		{
			"sampler":0,
			"source":17
		},
		{
			"sampler":0,
			"source":18
		},
		{
			"sampler":0,
			"source":19
		},
		{
			"sampler":0,
			"source":20
		},
		{
			"sampler":0,
			"source":21
		},
		{
			"sampler":0,
			"source":22
		},
		{
			"sampler":0,
			"source":23
		},
		{
			"sampler":0,
			"source":24
		},
		{
			"sampler":0,
			"source":25
		},
		{
			"sampler":0,
			"source":26
		},
		{
			"sampler":0,
			"source":27
		},
		{
			"sampler":0,
			"source":28
		},
		{
			"sampler":0,
			"source":29
		},
		{
			"sampler":0,
			"source":30
		},
		{
			"sampler":0,
			"source":31
		},
		{
			"sampler":0,
			"source":32
		},
		{
			"sampler":0,
			"source":33
		},
		{
			"sampler":0,
			"source":34
		},
		{
			"sampler":0,
			"source":35
		},
		{
			"sampler":0,
			"source":36
		}
	],
	"images":[
		{
			"mimeType":"image/jpeg",
			"name":"13982482287905699490",
			"uri":"13982482287905699490.jpg"
		},
		{
			"mimeType":"image/jpeg",
			"name":"8750083169368950601",
			"uri":"8750083169368950601.jpg"
		},
		{
			"mimeType":"image/jpeg",
			"name":"16885566240357350108",
			"uri":"16885566240357350108.jpg"
		},
		{
			"mimeType":"image/jpeg",
			"name":"16299174074766089871",
			"uri":"16299174074766089871.jpg"
		},
		{
			"mimeType":"image/jpeg",
			"name":"5792855332885324923",
			"uri":"5792855332885324923.jpg"
		},
		{
			"mimeType":"image/jpeg",
			"name":"11968150294050148237",
			"uri":"11968150294050148237.jpg"
		},
		{
			"mimeType":"image/jpeg",
			"name":"2051777328469649772",
			"uri":"2051777328469649772.jpg"
		},
		{
			"mimeType":"image/jpeg",
			"name":"14650633544276105767",
			"uri":"14650633544276105767.jpg"
		},
		{
			"mimeType":"image/jpeg",
			"name":"4871783166746854860",
			"uri":"4871783166746854860.jpg"
		},
		{
			"mimeType":"image/jpeg",
			"name":"10388182081421875623",
			"uri":"10388182081421875623.jpg"
		},
		{
			"mimeType":"image/jpeg",
			"name":"15295713303328085182",
			"uri":"15295713303328085182.jpg"
		},
		{
			"mimeType":"image/jpeg",
			"name":"9916269861720640319",
			"uri":"9916269861720640319.jpg"
		},
		{
			"mimeType":"image/jpeg",
			"name":"15722799267630235092",
			"uri":"15722799267630235092.jpg"
		},
		{
			"mimeType":"image/jpeg",
			"name":"6047387724914829168",
			"uri":"6047387724914829168.jpg"
		},
		{
			"mimeType":"image/jpeg",
			"name":"8051790464816141987",
			"uri":"8051790464816141987.jpg"
		},
		{
			"mimeType":"image/jpeg",
			"name":"14267839433702832875",
			"uri":"14267839433702832875.jpg"
		},
		{
			"mimeType":"image/jpeg",
			"name":"5823059166183034438",
			"uri":"5823059166183034438.jpg"
		},
		{
			"mimeType":"image/jpeg",
			"name":"13824894030729245199",
			"uri":"13824894030729245199.jpg"
		},
		{
			"mimeType":"image/jpeg",
			"name":"6667038893015345571",
			"uri":"6667038893015345571.jpg"
		},
		{
			"mimeType":"image/jpeg",
			"name":"7441062115984513793",
			"uri":"7441062115984513793.jpg"
		},
		{
			"mimeType":"image/jpeg",
			"name":"8114461559286000061",
			"uri":"8114461559286000061.jpg"
		},
		{
			"mimeType":"image/jpeg",
			"name":"3628158980083700836",
			"uri":"3628158980083700836.jpg"
		},
		{
			"mimeType":"image/jpeg",
			"name":"11490520546946913238",
			"uri":"11490520546946913238.jpg"
		},
		{
			"mimeType":"image/jpeg",
			"name":"3455394979645218238",
			"uri":"3455394979645218238.jpg"
		},
		{
			"mimeType":"image/jpeg",
			"name":"7645212358685992005",
			"uri":"7645212358685992005.jpg"
		},
		{
			"mimeType":"image/jpeg",
			"name":"6151467286084645207",
			"uri":"6151467286084645207.jpg"
		},
		{
			"mimeType":"image/jpeg",
			"name":"8783994986360286082",
			"uri":"8783994986360286082.jpg"
		},
		{
			"mimeType":"image/png",
			"name":"white",
			"uri":"white.png"
		},
		{
			"mimeType":"image/jpeg",
			"name":"10381718147657362067",
			"uri":"10381718147657362067.jpg"
		},
		{
			"mimeType":"image/jpeg",
			"name":"8481240838833932244",
			"uri":"8481240838833932244.jpg"
		},
		{
			"mimeType":"image/jpeg",
			"name":"17556969131407844942",
			"uri":"17556969131407844942.jpg"
		},
		{
			"mimeType":"image/jpeg",
			"name":"759203620573749278",
			"uri":"759203620573749278.jpg"
		},
		{
			"mimeType":"image/jpeg",
			"name":"6772804448157695701",
			"uri":"6772804448157695701.jpg"
		},
		{
			"mimeType":"image/jpeg",
			"name":"13196865903111448057",
			"uri":"13196865903111448057.jpg"
		},
		{
			"mimeType":"image/jpeg",
			"name":"14118779221266351425",
			"uri":"14118779221266351425.jpg"
		},
		{
			"mimeType":"image/jpeg",
			"name":"2969916736137545357",
			"uri":"2969916736137545357.jpg"
		},
		{
			"mimeType":"image/jpeg",
			"name":"8747919177698443163",
			"uri":"8747919177698443163.jpg"
		}
	],
	"accessors":[
		{
			"bufferView":0,
			"componentType":5126,
			"count":2259,
			"max":[
				10.398935317993164,
				6.068425178527832,
				0.9946266412734985
			],
			"min":[
				-11.426199913024902,
				0.32654881477355957,
				-1.021480679512024
			],
			"type":"VEC3"
		},
		{
			"bufferView":1,
			"componentType":5126,
			"count":2259,
			"type":"VEC3"
		},
		{
			"bufferView":2,
			"componentType":5126,
			"count":2259,
			"type":"VEC2"
		},
		{
			"bufferView":3,
			"componentType":5123,
			"count":12258,
			"type":"SCALAR"
		},
		{
			"bufferView":4,
			"componentType":5126,
			"count":1086,
			"max":[
				13.973543167114258,
				10.777566909790039,
				8.603301048278809
			],
			"min":[
				-14.935864448547363,
				-1.0115400552749634,
				-8.82663345336914
			],
			"type":"VEC3"
		},
		{
			"bufferView":5,
			"componentType":5126,
			"count":1086,
			"type":"VEC3"
		},
		{
			"bufferView":6,
			"componentType":5126,
			"count":1086,
			"type":"VEC2"
		},
		{
			"bufferView":7,
			"componentType":5123,
			"count":2388,
			"type":"SCALAR"
		},
		{
			"bufferView":8,
			"componentType":5126,
			"count":11385,
			"max":[
				7.375484466552734,
				10.200090408325195,
				2.2521250247955322
			],
			"min":[
				-8.423006057739258,
				1.6911640167236328,
				-2.2592365741729736
			],
			"type":"VEC3"
		},
		{
			"bufferView":9,
			"componentType":5126,
			"count":11385,
			"type":"VEC3"
		},
		{
			"bufferView":10,
			"componentType":5126,
			"count":11385,
			"type":"VEC2"
		},
		{
			"bufferView":11,
			"componentType":5123,
			"count":30504,
			"type":"SCALAR"
		},
		{
			"bufferView":12,
			"componentType":5126,
			"count":5057,
			"max":[
				10.417613983154297,
				10.111424446105957,
				4.884833335876465
			],
			"min":[
				-11.435619354248047,
				1.7264288663864136,
				-4.875575065612793
			],
			"type":"VEC3"
		},
		{
			"bufferView":13,
			"componentType":5126,
			"count":5057,
			"type":"VEC3"
		},
		{
			"bufferView":14,
			"componentType":5126,
			"count":5057,
			"type":"VEC2"
		},
		{
			"bufferView":15,
			"componentType":5123,
			"count":17628,
			"type":"SCALAR"
		},
		{
			"bufferView":16,
			"componentType":5126,
			"count":3553,
			"max":[
				7.4048309326171875,
				1.7679768800735474,
				2.258530616760254
			],
			"min":[
				-8.457761764526367,
				-0.01968560181558132,
				-2.249342441558838
			],
			"type":"VEC3"
		},
		{
			"bufferView":17,
			"componentType":5126,
			"count":3553,
			"type":"VEC3"
		},
		{
			"bufferView":18,
			"componentType":5126,
			"count":3553,
			"type":"VEC2"
		},
		{
			"bufferView":19,
			"componentType":5123,
			"count":8448,
			"type":"SCALAR"
		},
		{
			"bufferView":20,
			"componentType":5126,
			"count":23,
			"max":[
				10.417768478393555,
				3.32424259185791,
				4.879093170166016
			],
			"min":[
				-11.457795143127441,
				-0.020049601793289185,
				-4.877837181091309
			],
			"type":"VEC3"
		},
		{
			"bufferView":21,
			"componentType":5126,
			"count":23,
			"type":"VEC3"
		},
		{
			"bufferView":22,
			"componentType":5126,
			"count":23,
			"type":"VEC2"
		},
		{
			"bufferView":23,
			"componentType":5123,
			"count":63,
			"type":"SCALAR"
		},
		{
			"bufferView":24,
			"componentType":5126,
			"count":14156,
			"max":[
				10.426176071166992,
				5.562582969665527,
				4.891415596008301
			],
			"min":[
				-11.442441940307617,
				1.4612184762954712,
				-4.890131950378418
			],
			"type":"VEC3"
		},
		{
			"bufferView":25,
			"componentType":5126,
			"count":14156,
			"type":"VEC3"
		},
		{
			"bufferView":26,
			"componentType":5126,
			"count":14156,
			"type":"VEC2"
		},
		{
			"bufferView":27,
			"componentType":5123,
			"count":21264,
			"type":"SCALAR"
		},
		{
			"bufferView":28,
			"componentType":5126,
			"count":1160,
			"max":[
				10.524195671081543,
				5.734805107116699,
				5.125720977783203
			],
			"min":[
				-4.0774664878845215,
				-0.01772400178015232,
				-4.92669677734375
			],
			"type":"VEC3"
		},
		{
			"bufferView":29,
			"componentType":5126,
			"count":1160,
			"type":"VEC3"
		},
		{
			"bufferView":30,
			"componentType":5126,
			"count":1160,
			"type":"VEC2"
		},
		{
			"bufferView":31,
			"componentType":5123,
			"count":2640,
			"type":"SCALAR"
		},
		{
			"bufferView":32,
			"componentType":5126,
			"count":23342,
			"max":[
				7.259255886077881,
				5.59689474105835,
				2.1637988090515137
			],
			"min":[
				-8.301213264465332,
				4.053065776824951,
				-2.192032814025879
			],
			"type":"VEC3"
		},
		{
			"bufferView":33,
			"componentType":5126,
			"count":23342,
			"type":"VEC3"
		},
		{
			"bufferView":34,
			"componentType":5126,
			"count":23342,
			"type":"VEC2"
		},
		{
			"bufferView":35,
			"componentType":5123,
			"count":69624,
			"type":"SCALAR"
		},
		{
			"bufferView":36,
			"componentType":5126,
			"count":38,
			"max":[
				-0.06610320508480072,
				2.785579204559326,
				4.889653205871582
			],
			"min":[
				-0.9552584886550903,
				2.0538480281829834,
				4.834878921508789
			],
			"type":"VEC3"
		},
		{
			"bufferView":37,
			"componentType":5126,
			"count":38,
			"type":"VEC3"
		},
		{
			"bufferView":38,
			"componentType":5126,
			"count":38,
			"type":"VEC2"
		},
		{
			"bufferView":39,
			"componentType":5123,
			"count":54,
			"type":"SCALAR"
		},
		{
			"bufferView":40,
			"componentType":5126,
			"count":5308,
			"max":[
				9.553364753723145,
				1.0641344785690308,
				4.111705780029297
			],
			"min":[
				-10.213387489318848,
				-0.005547200329601765,
				-3.9023854732513428
			],
			"type":"VEC3"
		},
		{
			"bufferView":41,
			"componentType":5126,
			"count":5308,
			"type":"VEC3"
		},
		{
			"bufferView":42,
			"componentType":5126,
			"count":5308,
			"type":"VEC2"
		},
		{
			"bufferView":43,
			"componentType":5123,
			"count":27552,
			"type":"SCALAR"
		},
		{
			"bufferView":44,
			"componentType":5126,
			"count":1732,
			"max":[
				10.392210960388184,
				2.1180896759033203,
				0.6284385919570923
			],
			"min":[
				-11.419475555419922,
				0.6392384171485901,
				-0.6319206357002258
			],
			"type":"VEC3"
		},
		{
			"bufferView":45,
			"componentType":5126,
			"count":1732,
			"type":"VEC3"
		},
		{
			"bufferView":46,
			"componentType":5126,
			"count":1732,
			"type":"VEC2"
		},
		{
			"bufferView":47,
			"componentType":5123,
			"count":9126,
			"type":"SCALAR"
		},
		{
			"bufferView":48,
			"componentType":5126,
			"count":11970,
			"max":[
				14.39926528930664,
				11.435466766357422,
				9.129019737243652
			],
			"min":[
				-15.367568016052246,
				10.244108200073242,
				-9.176846504211426
			],
			"type":"VEC3"
		},
		{
			"bufferView":49,
			"componentType":5126,
			"count":11970,
			"type":"VEC3"
		},
		{
			"bufferView":50,
			"componentType":5126,
			"count":11970,
			"type":"VEC2"
		},
		{
			"bufferView":51,
			"componentType":5123,
			"count":43452,
			"type":"SCALAR"
		}
	],
	"bufferViews":[
		{
			"buffer":0,
			"byteLength":27108,
			"byteOffset":0,
			"target":34962
		},
		{
			"buffer":0,
			"byteLength":27108,
			"byteOffset":27108,
			"target":34962
		},
		{
			"buffer":0,
			"byteLength":18072,
			"byteOffset":54216,
			"target":34962
		},
		{
			"buffer":0,
			"byteLength":24516,
			"byteOffset":72288,
			"target":34963
		},
		{
			"buffer":0,
			"byteLength":13032,
			"byteOffset":96804,
			"target":34962
		},
		{
			"buffer":0,
			"byteLength":13032,
			"byteOffset":109836,
			"target":34962
		},
		{
			"buffer":0,
			"byteLength":8688,
			"byteOffset":122868,
			"target":34962
		},
		{
			"buffer":0,
			"byteLength":4776,
			"byteOffset":131556,
			"target":34963
		},
		{
			"buffer":0,
			"byteLength":136620,
			"byteOffset":136332,
			"target":34962
		},
		{
			"buffer":0,
			"byteLength":136620,
			"byteOffset":272952,
			"target":34962
		},
		{
			"buffer":0,
			"byteLength":91080,
			"byteOffset":409572,
			"target":34962
		},
		{
			"buffer":0,
			"byteLength":61008,
			"byteOffset":500652,
			"target":34963
		},
		{
			"buffer":0,
			"byteLength":60684,
			"byteOffset":561660,
			"target":34962
		},
		{
			"buffer":0,
			"byteLength":60684,
			"byteOffset":622344,
			"target":34962
		},
		{
			"buffer":0,
			"byteLength":40456,
			"byteOffset":683028,
			"target":34962
		},
		{
			"buffer":0,
			"byteLength":35256,
			"byteOffset":723484,
			"target":34963
		},
		{
			"buffer":0,
			"byteLength":42636,
			"byteOffset":758740,
			"target":34962
		},
		{
			"buffer":0,
			"byteLength":42636,
			"byteOffset":801376,
			"target":34962
		},
		{
			"buffer":0,
			"byteLength":28424,
			"byteOffset":844012,
			"target":34962
		},
		{
			"buffer":0,
			"byteLength":16896,
			"byteOffset":872436,
			"target":34963
		},
		{
			"buffer":0,
			"byteLength":276,
			"byteOffset":889332,
			"target":34962
		},
		{
			"buffer":0,
			"byteLength":276,
			"byteOffset":889608,
			"target":34962
		},
		{
			"buffer":0,
			"byteLength":184,
			"byteOffset":889884,
			"target":34962
		},
		{
			"buffer":0,
			"byteLength":126,
			"byteOffset":890068,
			"target":34963
		},
		{
			"buffer":0,
			"byteLength":169872,
			"byteOffset":890196,
			"target":34962
		},
		{
			"buffer":0,
			"byteLength":169872,
			"byteOffset":1060068,
			"target":34962
		},
		{
			"buffer":0,
			"byteLength":113248,
			"byteOffset":1229940,
			"target":34962
		},
		{
			"buffer":0,
			"byteLength":42528,
			"byteOffset":1343188,
			"target":34963
		},
		{
			"buffer":0,
			"byteLength":13920,
			"byteOffset":1385716,
			"target":34962
		},
		{
			"buffer":0,
			"byteLength":13920,
			"byteOffset":1399636,
			"target":34962
		},
		{
			"buffer":0,
			"byteLength":9280,
			"byteOffset":1413556,
			"target":34962
		},
		{
			"buffer":0,
			"byteLength":5280,
			"byteOffset":1422836,
			"target":34963
		},
		{
			"buffer":0,
			"byteLength":280104,
			"byteOffset":1428116,
			"target":34962
		},
		{
			"buffer":0,
			"byteLength":280104,
			"byteOffset":1708220,
			"target":34962
		},
		{
			"buffer":0,
			"byteLength":186736,
			"byteOffset":1988324,
			"target":34962
		},
		{
			"buffer":0,
			"byteLength":139248,
			"byteOffset":2175060,
			"target":34963
		},
		{
			"buffer":0,
			"byteLength":456,
			"byteOffset":2314308,
			"target":34962
		},
		{
			"buffer":0,
			"byteLength":456,
			"byteOffset":2314764,
			"target":34962
		},
		{
			"buffer":0,
			"byteLength":304,
			"byteOffset":2315220,
			"target":34962
		},
		{
			"buffer":0,
			"byteLength":108,
			"byteOffset":2315524,
			"target":34963
		},
		{
			"buffer":0,
			"byteLength":63696,
			"byteOffset":2315632,
			"target":34962
		},
		{
			"buffer":0,
			"byteLength":63696,
			"byteOffset":2379328,
			"target":34962
		},
		{
			"buffer":0,
			"byteLength":42464,
			"byteOffset":2443024,
			"target":34962
		},
		{
			"buffer":0,
			"byteLength":55104,
			"byteOffset":2485488,
			"target":34963
		},
		{
			"buffer":0,
			"byteLength":20784,
			"byteOffset":2540592,
			"target":34962
		},
		{
			"buffer":0,
			"byteLength":20784,
			"byteOffset":2561376,
			"target":34962
		},
		{
			"buffer":0,
			"byteLength":13856,
			"byteOffset":2582160,
			"target":34962
		},
		{
			"buffer":0,
			"byteLength":18252,
			"byteOffset":2596016,
			"target":34963
		},
		{
			"buffer":0,
			"byteLength":143640,
			"byteOffset":2614268,
			"target":34962
		},
		{
			"buffer":0,
			"byteLength":143640,
			"byteOffset":2757908,
			"target":34962
		},
		{
			"buffer":0,
			"byteLength":95760,
			"byteOffset":2901548,
			"target":34962
		},
		{
			"buffer":0,
			"byteLength":86904,
			"byteOffset":2997308,
			"target":34963
		}
	],
	"samplers":[
		{
			"magFilter":9729,
			"minFilter":9987
		}
	],
	"buffers":[
		{
			"byteLength":3084212,
			"uri":"SponzaReduced.bin"
		}
	]
}
