{
	"asset":{
		"generator":"Khronos glTF Blender I/O v4.1.62",
		"version":"2.0"
	},
	"scene":0,
	"scenes":[
		{
			"name":"Scene",
			"nodes":[
				0
			]
		}
	],
	"nodes":[
		{
			"mesh":0,
			"name":"Mill",
			"rotation":[
				0.7071068286895752,
				0,
				0,
				0.7071068286895752
			]
		}
	],
	"materials":[
		{
			"doubleSided":true,
			"name":"Ground_Shadow",
			"pbrMetallicRoughness":{
				"baseColorTexture":{
					"index":0
				},
				"roughnessFactor":0
			}
		},
		{
			"doubleSided":true,
			"name":"Ground",
			"pbrMetallicRoughness":{
				"baseColorTexture":{
					"index":1
				},
				"metallicFactor":0,
				"roughnessFactor":0.2181818187236786
			}
		},
		{
			"doubleSided":true,
			"name":"Mill",
			"pbrMetallicRoughness":{
				"baseColorTexture":{
					"index":2
				},
				"metallicFactor":0,
				"roughnessFactor":0.4018182158470154
			}
		}
	],
	"meshes":[
		{
			"name":"Mill",
			"primitives":[
				{
					"attributes":{
						"POSITION":0,
						"NORMAL":1,
						"TEXCOORD_0":2
					},
					"indices":3,
					"material":0
				},
				{
					"attributes":{
						"POSITION":4,
						"NORMAL":5,
						"TEXCOORD_0":6
					},
					"indices":7,
					"material":1
				},
				{
					"attributes":{
						"POSITION":8,
						"NORMAL":9,
						"TEXCOORD_0":10
					},
					"indices":11,
					"material":2
				}
			]
		}
	],
	"textures":[
		{
			"sampler":0,
			"source":0
		},
		{
			"sampler":0,
			"source":1
		},
		{
			"sampler":0,
			"source":2
		}
	],
	"images":[
		{
			"mimeType":"image/jpeg",
			"name":"Ground_shadow",
			"uri":"Ground_shadow.jpg"
		},
		{
			"mimeType":"image/jpeg",
			"name":"Ground_color",
			"uri":"Ground_color.jpg"
		},
		{
			"mimeType":"image/jpeg",
			"name":"MillCat_color",
			"uri":"MillCat_color.jpg"
		}
	],
	"accessors":[
		{
			"bufferView":0,
			"componentType":5126,
			"count":4,
			"max":[
				16.53339958190918,
				-4.087475776672363,
				16.670320510864258
			],
			"min":[
				-16.599401473999023,
				-4.087479114532471,
				-16.46249008178711
			],
			"type":"VEC3"
		},
		{
			"bufferView":1,
			"componentType":5126,
			"count":4,
			"type":"VEC3"
		},
		{
			"bufferView":2,
			"componentType":5126,
			"count":4,
			"type":"VEC2"
		},
		{
			"bufferView":3,
			"componentType":5123,
			"count":6,
			"type":"SCALAR"
		},
		{
			"bufferView":4,
			"componentType":5126,
			"count":21340,
			"max":[
				9.662480354309082,
				0.04069200158119202,
				10.175029754638672
			],
			"min":[
				-9.454000473022461,
				-3.6602070331573486,
				-9.757769584655762
			],
			"type":"VEC3"
		},
		{
			"bufferView":5,
			"componentType":5126,
			"count":21340,
			"type":"VEC3"
		},
		{
			"bufferView":6,
			"componentType":5126,
			"count":21340,
			"type":"VEC2"
		},
		{
			"bufferView":7,
			"componentType":5123,
			"count":32022,
			"type":"SCALAR"
		},
		{
			"bufferView":8,
			"componentType":5126,
			"count":10632,
			"max":[
				6.468319892883301,
				14.303764343261719,
				5.443398952484131
			],
			"min":[
				-7.09542989730835,
				-0.12034700065851212,
				-4.951651096343994
			],
			"type":"VEC3"
		},
		{
			"bufferView":9,
			"componentType":5126,
			"count":10632,
			"type":"VEC3"
		},
		{
			"bufferView":10,
			"componentType":5126,
			"count":10632,
			"type":"VEC2"
		},
		{
			"bufferView":11,
			"componentType":5123,
			"count":17055,
			"type":"SCALAR"
		}
	],
	"bufferViews":[
		{
			"buffer":0,
			"byteLength":48,
			"byteOffset":0,
			"target":34962
		},
		{
			"buffer":0,
			"byteLength":48,
			"byteOffset":48,
			"target":34962
		},
		{
			"buffer":0,
			"byteLength":32,
			"byteOffset":96,
			"target":34962
		},
		{
			"buffer":0,
			"byteLength":12,
			"byteOffset":128,
			"target":34963
		},
		{
			"buffer":0,
			"byteLength":256080,
			"byteOffset":140,
			"target":34962
		},
		{
			"buffer":0,
			"byteLength":256080,
			"byteOffset":256220,
			"target":34962
		},
		{
			"buffer":0,
			"byteLength":170720,
			"byteOffset":512300,
			"target":34962
		},
		{
			"buffer":0,
			"byteLength":64044,
			"byteOffset":683020,
			"target":34963
		},
		{
			"buffer":0,
			"byteLength":127584,
			"byteOffset":747064,
			"target":34962
		},
		{
			"buffer":0,
			"byteLength":127584,
			"byteOffset":874648,
			"target":34962
		},
		{
			"buffer":0,
			"byteLength":85056,
			"byteOffset":1002232,
			"target":34962
		},
		{
			"buffer":0,
			"byteLength":34110,
			"byteOffset":1087288,
			"target":34963
		}
	],
	"samplers":[
		{
			"magFilter":9729,
			"minFilter":9987
		}
	],
	"buffers":[
		{
			"byteLength":1121400,
			"uri":"Mill.bin"
		}
	]
}
